HIERARCHY
ROOT root
{
	OFFSET	0	13.1	24.9
	CHANNELS 6  Xposition Yposition Zposition Xrotation Yrotation Zrotation
	JOINT spine_1
	{
		OFFSET	0	9.99999	0
		CHANNELS 3  Xrotation Yrotation Zrotation
		JOINT spine_2
		{
			OFFSET	0	112	-10
			CHANNELS 3  Xrotation Yrotation Zrotation
			JOINT spine_3
			{
				OFFSET	0	206.5	19.3
				CHANNELS 3  Xrotation Yrotation Zrotation
				JOINT spine_4
				{
					OFFSET	0	110.4	14.6
					CHANNELS 3  Xrotation Yrotation Zrotation
					JOINT neck_1
					{
						OFFSET	0	71.8	-50.3
						CHANNELS 3  Xrotation Yrotation Zrotation
						JOINT neck_2
						{
							OFFSET	0	86.2	-25.8
							CHANNELS 3  Xrotation Yrotation Zrotation
							JOINT head_ee
							{
								OFFSET	0	179.8	-8.7
								CHANNELS 3  Xrotation Yrotation Zrotation
								End Site
								{
									OFFSET	1	0	0
								}
							}
						}
					}
					JOINT left_clavicle
					{
						OFFSET	-43.2	22.4	-70.8
						CHANNELS 3  Xrotation Yrotation Zrotation
						JOINT left_shoulder
						{
							OFFSET	-93.9	-5.79999	48.7
							CHANNELS 3  Xrotation Yrotation Zrotation
							JOINT left_elbow
							{
								OFFSET	-291.4	-30.8	15.2
								CHANNELS 3  Xrotation Yrotation Zrotation
								JOINT left_lowarm_twist
								{
									OFFSET	-110.7	-3.89999	13.6
									CHANNELS 3  Xrotation Yrotation Zrotation
									JOINT left_hand
									{
										OFFSET	-110.7	-3.89999	13.6
										CHANNELS 3  Xrotation Yrotation Zrotation
										JOINT left_ee
										{
											OFFSET	-80.8	-5.10001	12.1
											CHANNELS 3  Xrotation Yrotation Zrotation
											End Site
											{
												OFFSET	1	0	0
											}
										}
									}
								}
							}
						}
					}
					JOINT right_clavicle
					{
						OFFSET	43.2	22.4	-70.8
						CHANNELS 3  Xrotation Yrotation Zrotation
						JOINT right_shoulder
						{
							OFFSET	93.9	-5.79999	48.7
							CHANNELS 3  Xrotation Yrotation Zrotation
							JOINT right_elbow
							{
								OFFSET	291.4	-30.8	15.2
								CHANNELS 3  Xrotation Yrotation Zrotation
								JOINT right_lowarm_twist
								{
									OFFSET	110.7	-3.89999	13.6
									CHANNELS 3  Xrotation Yrotation Zrotation
									JOINT right_hand
									{
										OFFSET	110.7	-3.89999	13.6
										CHANNELS 3  Xrotation Yrotation Zrotation
										JOINT right_ee
										{
											OFFSET	80.8	-5.10001	12.1
											CHANNELS 3  Xrotation Yrotation Zrotation
											End Site
											{
												OFFSET	1	0	0
											}
										}
									}
								}
							}
						}
					}
				}
			}
		}
	}
	JOINT left_hip
	{
		OFFSET	-82.8	-127.5	0.300001
		CHANNELS 3  Xrotation Yrotation Zrotation
		JOINT left_knee
		{
			OFFSET	-28.2	-396.7	2.2
			CHANNELS 3  Xrotation Yrotation Zrotation
			JOINT left_ankle
			{
				OFFSET	-11.7	-411.3	35.4
				CHANNELS 3  Xrotation Yrotation Zrotation
				JOINT left_toes
				{
					OFFSET	0	-60	-88.6
					CHANNELS 3  Xrotation Yrotation Zrotation
					JOINT left_foot_ee
					{
						OFFSET	-22.5	-16.5	-42.2
						CHANNELS 3  Xrotation Yrotation Zrotation
						End Site
						{
							OFFSET	1	0	0
						}
					}
				}
			}
		}
	}
	JOINT right_hip
	{
		OFFSET	82.8	-127.5	0.300001
		CHANNELS 3  Xrotation Yrotation Zrotation
		JOINT right_knee
		{
			OFFSET	28.2	-396.7	2.2
			CHANNELS 3  Xrotation Yrotation Zrotation
			JOINT right_ankle
			{
				OFFSET	11.7	-411.3	35.4
				CHANNELS 3  Xrotation Yrotation Zrotation
				JOINT right_toes
				{
					OFFSET	0	-60	-88.6
					CHANNELS 3  Xrotation Yrotation Zrotation
					JOINT right_foot_ee
					{
						OFFSET	22.5	-16.5	-42.2
						CHANNELS 3  Xrotation Yrotation Zrotation
						End Site
						{
							OFFSET	1	0	0
						}
					}
				}
			}
		}
	}
}
MOTION
Frames: 16
Frame Time: 0.02
3046.18 736.378 -532.4 -162.771 -31.7939 -167.847 6.73852 -0.0328637 -0.622983 6.73873 0.00684418 -0.623811 6.73837 0.0654607 -0.620405 6.73784 -0.0333403 -0.622957 -19.1426 17.3026 8.47719 -20.1333 28.9629 15.1741 -0.0 0.0 -0.0 10.2876 17.2281 18.3911 -18.1661 -22.8827 34.2483 1.65516 -39.3458 0.591785 -61.5431 -5.47526 5.14662 -3.39349 18.7852 -12.9038 -0.0 0.0 -0.0 10.9961 3.63502 -21.9183 -32.3661 15.7957 -61.1969 0.480957 13.4012 -0.056505 28.4045 -0.112904 3.58977 0.245665 -4.17897 -3.37057 0.0 0.0 0.0 26.7833 -7.80111 -2.58966 -16.743 0.320197 2.5403 7.20073 29.1411 -1.10704 10.4612 -0.0 -0.0 -0.0 0.0 -0.0 45.1445 19.6581 -7.72077 -27.5211 -0.131003 -4.18097 6.08968 -4.15618 0.878739 -5.42253 0.0 0.0 0.0 0.0 0.0 
3046.81 737.506 -525.251 -162.532 -32.0962 -167.72 6.9292 0.0763775 -0.353847 6.92926 0.0987388 -0.34827 6.92858 0.129923 -0.337877 6.92843 0.0749317 -0.354156 -18.847 17.2617 8.21064 -19.8222 28.9698 14.8243 -0.0 0.0 -0.0 10.5839 15.6619 19.1528 -18.0165 -21.2444 33.8764 1.59683 -38.3419 0.5552 -61.9144 -5.52175 5.15678 -3.48501 18.169 -13.8309 -0.0 0.0 -0.0 11.1044 4.05362 -22.1681 -32.3947 15.579 -63.2979 0.486764 13.5571 -0.0578585 28.5601 -0.108608 3.60918 -0.114422 -4.72685 -1.22571 0.0 0.0 0.0 26.3374 -8.5894 -2.68098 -16.7565 0.320154 2.54237 7.21437 29.3037 -1.11032 10.4066 -0.0 -0.0 -0.0 0.0 -0.0 45.9518 20.2832 -8.57177 -27.7747 -0.122848 -4.21903 4.08561 -6.35629 0.591909 -5.79472 0.0 0.0 0.0 0.0 0.0 
3051.28 738.186 -523.571 -162.691 -30.5122 -168.733 7.03358 0.0667878 -0.244117 7.03361 0.0821862 -0.239372 7.03323 0.103138 -0.23112 7.03316 0.065343 -0.244508 -18.463 17.424 8.6514 -19.3741 28.9853 15.1667 -0.0 0.0 -0.0 10.3573 19.9164 18.0494 -17.9009 -21.496 35.3793 1.68204 -39.7989 0.60891 -61.2931 -5.444 5.13961 -3.56721 18.8175 -13.9622 -0.0 0.0 -0.0 10.9634 3.0981 -21.8259 -31.5627 15.8711 -62.9626 0.480503 13.389 -0.0563997 28.6114 -0.107182 3.61557 0.0461847 -4.26446 -2.09032 0.0 0.0 0.0 26.0647 -8.39775 -2.44522 -16.9168 0.319603 2.56696 9.59069 29.5874 -1.46884 10.5295 -0.0 -0.0 -0.0 0.0 -0.0 45.9529 22.8739 -9.55939 -27.072 -0.145033 -4.11347 3.6397 -8.53827 0.527688 -6.08424 0.0 0.0 0.0 0.0 0.0 
3053.24 741.143 -515.432 -162.881 -30.6844 -168.684 6.91363 0.128827 -0.110509 6.91363 0.135598 -0.102087 6.91339 0.144322 -0.0893286 6.91341 0.128403 -0.111001 -18.3495 17.496 8.28791 -19.2968 29.2944 14.8439 -0.0 0.0 -0.0 10.4193 18.8741 18.3352 -17.4487 -21.6714 36.0087 1.59282 -38.2719 0.552716 -60.8397 -5.38736 5.12655 -3.58861 18.9978 -13.9885 -0.0 0.0 -0.0 11.3645 3.4629 -22.7066 -32.2739 15.4812 -63.7373 0.472887 13.1843 -0.0546494 28.5327 -0.109368 3.60577 0.0643071 -4.34732 -2.24407 0.0 0.0 0.0 25.079 -8.75465 -2.85296 -17.1094 0.318851 2.59651 8.53162 29.5223 -1.31012 11.2323 -0.0 -0.0 -0.0 0.0 -0.0 45.007 22.4337 -10.2486 -27.0352 -0.146159 -4.10793 4.51287 -7.16461 0.652777 -5.94913 0.0 0.0 0.0 0.0 0.0 
3056.09 740.549 -498.736 -162.33 -33.2499 -167.451 7.16599 0.130447 0.00104382 7.16598 0.130116 0.00934241 7.16601 0.128819 0.0205723 7.16604 0.130451 -3.04908e-05 -17.4821 17.38 7.94775 -18.3396 29.0949 14.2127 -0.0 0.0 -0.0 10.1012 20.2333 17.5808 -16.5268 -21.6376 38.4645 1.83617 -42.2851 0.710137 -61.3203 -5.4474 5.14038 -3.54898 19.1835 -13.633 -0.0 0.0 -0.0 10.6965 -1.51295 -21.0035 -33.6809 17.2907 -64.6448 0.552134 15.2971 -0.0741471 28.4526 -0.111581 3.59577 0.0588122 -4.01291 -2.06924 0.0 0.0 0.0 24.9649 -9.29811 -3.88519 -18.6263 0.309457 2.82904 7.73218 24.8998 -1.15715 10.9017 -0.0 -0.0 -0.0 0.0 -0.0 42.5171 15.5627 -8.64399 -26.0299 -0.175543 -3.95645 1.82675 -9.51768 0.266181 -5.36996 0.0 0.0 0.0 0.0 0.0 
3059.42 740.237 -494.917 -163.143 -33.5824 -168.058 6.91901 0.0317834 0.0694298 6.91901 0.027301 0.0713116 6.91904 0.020708 0.0734974 6.91903 0.0320556 0.0693046 -17.8665 17.5826 7.98228 -18.7998 29.537 14.4586 -0.0 0.0 -0.0 9.9022 20.5081 17.216 -16.8035 -21.8242 40.3068 1.7719 -41.2711 0.667314 -61.3793 -5.45477 5.14205 -3.88258 20.4587 -14.922 -0.0 0.0 -0.0 10.5341 -0.0529869 -20.7597 -33.3866 17.9435 -65.9922 0.492175 13.7021 -0.0591334 27.8269 -0.128391 3.51761 0.205526 -2.10073 -2.24741 0.0 0.0 0.0 23.2246 -8.97403 -3.62085 -17.3858 0.317598 2.63889 7.93248 26.1385 -1.19454 12.0712 -0.0 -0.0 -0.0 0.0 -0.0 41.8349 13.9273 -7.78078 -26.6423 -0.15796 -4.04879 0.186326 -8.47584 0.0272552 -5.80429 0.0 0.0 0.0 0.0 0.0 
3064.05 739.075 -488.913 -163.916 -32.9223 -168.501 6.95304 0.217477 0.129738 6.95302 0.20878 0.143313 6.95356 0.194992 0.161574 6.95359 0.218062 0.128751 -16.5322 17.5597 5.90147 -17.4881 30.4047 12.1687 -0.0 0.0 -0.0 8.93305 21.2303 15.5864 -19.4734 -24.4243 40.2751 1.84136 -42.3655 0.713629 -61.2863 -5.44315 5.13942 -3.66867 18.6164 -14.7145 -0.0 0.0 -0.0 10.4774 -2.02274 -20.5173 -35.1701 17.997 -65.1408 0.540401 14.9868 -0.0710823 27.8604 -0.127513 3.5218 0.273869 -2.63928 -2.92385 0.0 0.0 0.0 22.192 -8.26015 -4.13358 -17.5535 0.316738 2.66461 6.69172 27.845 -1.02161 12.158 -0.0 -0.0 -0.0 0.0 -0.0 41.4615 16.1084 -8.73038 -26.5218 -0.161496 -4.03064 -0.799993 -9.49248 -0.117311 -5.11085 0.0 0.0 0.0 0.0 0.0 
3066.82 738.007 -483.589 -163.659 -33.1983 -168.483 6.93517 0.281049 0.287932 6.93518 0.262158 0.305232 6.93654 0.233441 0.327717 6.9365 0.282268 0.286737 -14.3814 17.8769 4.73621 -15.1952 31.347 10.5554 -0.0 0.0 -0.0 8.60458 20.0103 15.2418 -19.786 -23.3674 41.3195 1.76773 -41.2042 0.664565 -61.1185 -5.42218 5.13464 -3.7063 18.6928 -14.9041 -0.0 0.0 -0.0 9.9512 -2.31121 -19.4267 -33.4575 18.8987 -67.1144 0.48425 13.4896 -0.0572707 27.713 -0.131359 3.50336 0.437294 -2.39623 -3.90917 0.0 0.0 0.0 21.9655 -7.77308 -4.26995 -17.7103 0.315866 2.68865 6.30864 25.1579 -0.949222 13.2327 -0.0 -0.0 -0.0 0.0 -0.0 40.8444 14.774 -8.08824 -26.0136 -0.175997 -3.954 -2.85739 -8.55358 -0.420825 -4.92363 0.0 0.0 0.0 0.0 0.0 
3073.88 737.346 -471.371 -163.132 -33.2253 -167.996 7.19558 0.31218 0.324591 7.19559 0.290893 0.343797 7.19729 0.260242 0.367545 7.19724 0.315022 0.321832 -10.2025 17.9121 3.11674 -10.5743 31.7373 7.74679 -0.0 0.0 -0.0 8.33808 23.8784 14.3226 -19.421 -23.3696 42.5823 1.92854 -43.687 0.773118 -62.3378 -5.57485 5.16799 -3.5637 16.6062 -15.2425 -0.0 0.0 -0.0 10.3367 2.38614 -20.463 -29.7396 15.0363 -67.6404 0.37658 10.5671 -0.0348253 29.2778 -0.0881108 3.69857 0.63383 -3.3346 -5.59696 0.0 0.0 0.0 21.8096 -7.49127 -4.61991 -17.6519 0.316198 2.6797 6.3811 27.759 -0.974486 12.6044 -0.0 -0.0 -0.0 0.0 -0.0 40.197 14.2915 -8.2954 -26.1844 -0.1712 -3.97977 0.527895 -9.10248 0.077161 -3.95615 0.0 0.0 0.0 0.0 0.0 
3085.17 738.466 -473.408 -162.628 -33.5283 -167.619 7.43769 0.190951 0.160666 7.43768 0.180341 0.172491 7.43822 0.16562 0.186671 7.43823 0.193022 0.158172 -8.3981 16.7504 -0.316618 -8.56761 31.5898 3.57157 -0.0 0.0 -0.0 7.84778 24.5987 13.5254 -19.2243 -22.9557 45.0165 1.88877 -43.0913 0.745802 -63.4122 -5.7099 5.19467 -3.30118 13.9839 -15.0602 -0.0 0.0 -0.0 10.5741 6.77817 -21.0865 -25.7101 12.525 -65.6278 0.259746 7.33215 -0.0166426 30.2449 -0.0587219 3.81859 0.989354 -4.2957 -8.34542 0.0 0.0 0.0 21.9204 -8.01105 -3.83847 -17.943 0.31445 2.72433 6.71079 27.2397 -1.02065 12.4788 -0.0 -0.0 -0.0 0.0 -0.0 38.726 13.6157 -7.3142 -24.3145 -0.219528 -3.69689 1.98679 -9.23236 0.289356 -3.43813 0.0 0.0 0.0 0.0 0.0 
3093.62 738.349 -471.312 -162.192 -34.0018 -167.042 7.53409 0.292898 -0.0915022 7.53405 0.298126 -0.0726788 7.53374 0.302994 -0.04854 7.53386 0.291526 -0.0957834 -5.83176 16.9424 -1.68487 -5.66387 32.5781 1.46206 -0.0 0.0 -0.0 8.24681 25.304 13.9923 -22.6792 -22.0976 46.1657 1.9246 -43.6285 0.770402 -64.2701 -5.81808 5.21415 -3.34571 12.6139 -16.123 -0.0 0.0 -0.0 9.97102 9.32751 -19.7776 -23.7978 10.6098 -67.4996 0.221688 6.26712 -0.0121364 30.9773 -0.0351182 3.90916 0.877991 -4.218 -7.57345 0.0 0.0 0.0 22.0874 -7.97539 -3.58712 -18.132 0.313194 2.75329 6.50303 27.7183 -0.992526 12.845 -0.0 -0.0 -0.0 0.0 -0.0 39.5579 13.935 -6.9676 -25.5628 -0.188291 -3.8859 1.18021 -9.07323 0.172231 -2.81832 0.0 0.0 0.0 0.0 0.0 
3102.46 738.947 -473.163 -161.774 -34.7325 -166.411 7.55546 0.244012 -0.307631 7.55547 0.263092 -0.29148 7.55414 0.285524 -0.269545 7.55411 0.239371 -0.311255 -4.59273 16.8972 -4.44502 -4.13394 34.3651 -1.792 -0.0 0.0 -0.0 8.15221 25.5471 13.8259 -23.9963 -21.744 49.1471 1.87168 -42.8316 0.734152 -63.7933 -5.75792 5.20352 -3.40514 11.4108 -17.1951 -0.0 0.0 -0.0 9.4334 9.82012 -18.6019 -23.5545 9.94035 -67.4708 0.208937 5.9093 -0.0107841 30.2349 -0.0590361 3.81735 1.28096 -4.77199 -10.4788 0.0 0.0 0.0 22.0619 -10.445 -2.40038 -18.3312 0.311767 2.78382 7.94954 28.4418 -1.21398 13.8904 -0.0 -0.0 -0.0 0.0 -0.0 38.8266 13.5446 -6.22684 -24.7019 -0.210276 -3.75561 0.515017 -8.18555 0.0752758 -1.5446 0.0 0.0 0.0 0.0 0.0 
3105.97 741.03 -472.757 -161.31 -35.6306 -165.961 7.60644 0.225792 -0.353627 7.60648 0.247837 -0.338543 7.60498 0.273793 -0.317919 7.60491 0.220147 -0.357169 -3.12048 16.7678 -6.29898 -2.30198 35.3636 -4.292 -0.0 0.0 -0.0 8.8389 24.8073 14.905 -26.9047 -21.8953 50.0477 1.5729 -37.9219 0.540426 -63.6453 -5.73926 5.20012 -2.65254 7.8906 -14.0515 -0.0 0.0 -0.0 9.31839 10.6273 -18.3362 -23.4243 8.59036 -68.617 0.204846 5.79438 -0.010367 31.1226 -0.0302965 3.92709 0.982638 -3.81489 -8.11055 0.0 0.0 0.0 22.7083 -9.19007 -2.57944 -18.6049 0.309632 2.82576 6.6383 28.4687 -1.01763 12.7209 -0.0 -0.0 -0.0 0.0 -0.0 38.5931 13.3177 -5.60037 -24.1748 -0.222768 -3.67569 0.221048 -8.58042 0.0323317 -2.04572 0.0 0.0 0.0 0.0 0.0 
3112.84 739.572 -470.295 -160.969 -36.2003 -165.456 7.64705 0.203935 -0.531225 7.64718 0.237324 -0.517172 7.64487 0.277074 -0.497012 7.64458 0.195104 -0.534532 -1.42195 16.2876 -7.9268 -0.198358 35.582 -6.73825 -0.0 0.0 -0.0 8.1646 24.0347 14.0509 -28.255 -23.0741 52.3074 1.3775 -34.3067 0.425197 -61.5142 -5.47164 5.14582 -2.25714 5.21121 -12.7374 -0.0 0.0 -0.0 8.93864 12.5202 -17.4544 -23.2204 7.19354 -70.1617 0.216858 6.13164 -0.0116149 31.6965 -0.0108109 3.99781 0.882603 -3.65706 -7.38107 0.0 0.0 0.0 22.6594 -9.74702 -2.02975 -18.8216 0.3078 2.85896 7.04369 28.5431 -1.0791 13.2128 -0.0 -0.0 -0.0 0.0 -0.0 38.043 13.0996 -5.33332 -23.8606 -0.229864 -3.628 0.372294 -8.86104 0.0544354 -1.29749 0.0 0.0 0.0 0.0 0.0 
3107.66 741.646 -465.688 -161.077 -36.1922 -166.211 7.63141 0.171645 -0.300154 7.63144 0.190397 -0.288624 7.63045 0.212468 -0.272786 7.63038 0.16672 -0.302917 -4.27051 15.2134 -6.19936 -3.7258 32.5464 -4.00263 -0.0 0.0 -0.0 7.77232 24.4067 13.4425 -28.1587 -24.4816 52.8668 1.16417 -29.9707 0.311629 -60.1211 -5.29781 5.10493 -1.83078 3.74566 -10.5722 -0.0 0.0 -0.0 9.1823 15.4349 -17.8636 -21.7123 7.12654 -73.2279 0.434193 12.1388 -0.0461677 33.3328 0.0486245 4.19831 0.794013 -3.76651 -6.83515 0.0 0.0 0.0 22.3217 -14.4638 -1.20104 -19.1768 0.304526 2.91336 3.9829 28.6843 -0.615669 14.1244 -0.0 -0.0 -0.0 0.0 -0.0 37.5522 10.3103 -4.34881 -23.5393 -0.236851 -3.57918 -2.06992 -5.51489 -0.304753 -2.23193 0.0 0.0 0.0 0.0 0.0 
3108.42 742.06 -463.906 -161.018 -36.2083 -166.729 7.56469 0.166028 -0.250826 7.5647 0.181652 -0.239753 7.56393 0.200174 -0.22452 7.5639 0.162203 -0.253316 -4.48541 15.2123 -4.84102 -4.06024 31.5507 -2.50732 -0.0 0.0 -0.0 7.59146 23.9138 13.2439 -31.0956 -25.9968 53.003 1.1269 -29.1708 0.293238 -60.0876 -5.29365 5.1039 -1.43016 2.72253 -8.35889 -0.0 0.0 -0.0 9.62598 15.7868 -18.8265 -21.9677 7.10655 -72.4261 0.419899 11.7505 -0.0432093 33.1807 0.0428572 4.17974 0.792053 -3.04333 -6.53225 0.0 0.0 0.0 22.4864 -13.4498 -0.709566 -19.0493 0.305739 2.89385 3.9752 28.9194 -0.615435 14.4392 -0.0 -0.0 -0.0 0.0 -0.0 37.1487 8.16359 -3.34366 -23.6384 -0.234724 -3.59425 0.388894 -5.70127 0.0569216 0.787937 -0.0 -0.0 0.0 0.0 0.0 
